<svg width="90" height="90" viewBox="0 0 90 90" fill="none" xmlns="http://www.w3.org/2000/svg">
<g clip-path="url(#clip0)">
<path d="M26.088 70H15.144L25.48 21.664L36.728 20.144L27.608 62.78C28.3173 63.2867 29.0267 63.6667 29.736 63.92C30.4453 64.1733 31.18 64.3 31.94 64.3C36.044 64.3 39.4893 60.9307 42.276 54.192C45.1133 47.4027 46.532 39.6253 46.532 30.86C46.532 26.0973 45.5947 22.5253 43.72 20.144C41.8453 17.712 39.084 16.496 35.436 16.496C29.508 16.496 24.6947 18.1933 20.996 21.588C17.348 24.932 15.524 29.3907 15.524 34.964C15.524 35.9267 15.5747 36.7627 15.676 37.472C15.828 38.1813 16.056 38.8653 16.36 39.524C16.4613 39.7267 16.512 39.8787 16.512 39.98C16.5627 40.0307 16.588 40.0813 16.588 40.132C13.852 40.132 11.8 39.5493 10.432 38.384C9.11467 37.2187 8.456 35.4453 8.456 33.064C8.456 30.2773 9.34267 27.5667 11.116 24.932C12.94 22.2467 15.4227 19.916 18.564 17.94C21.148 16.3693 23.9853 15.1533 27.076 14.292C30.2173 13.4307 33.4347 13 36.728 13C43.2133 13 48.204 14.9507 51.7 18.852C55.2467 22.7027 57.02 28.048 57.02 34.888C57.02 38.5867 56.5893 42.336 55.728 46.136C54.8667 49.936 53.6507 53.4827 52.08 56.776C50.0027 61.2347 47.5453 64.7307 44.708 67.264C41.8707 69.7467 38.9573 70.988 35.968 70.988C34.448 70.988 32.9027 70.6587 31.332 70C29.812 69.2907 28.2667 68.2773 26.696 66.96L26.088 70ZM71.2385 16.8H82.1825L72.3025 52.444H65.8425L71.2385 16.8ZM60.9785 63.92C60.9785 62.248 61.5612 60.8293 62.7265 59.664C63.9425 58.4987 65.3865 57.916 67.0585 57.916C68.7305 57.916 70.1492 58.4987 71.3145 59.664C72.4799 60.8293 73.0625 62.248 73.0625 63.92C73.0625 65.592 72.4799 67.036 71.3145 68.252C70.1492 69.4173 68.7305 70 67.0585 70C65.3865 70 63.9425 69.4173 62.7265 68.252C61.5612 67.036 60.9785 65.592 60.9785 63.92Z" fill="#FD5621"/>
</g>
<defs>
<clipPath id="clip0">
<rect width="90" height="90" fill="white"/>
</clipPath>
</defs>
</svg>
